<mxfile host="Electron" agent="Mozilla/5.0 (Macintosh; Intel Mac OS X 10_15_7) AppleWebKit/537.36 (KHTML, like Gecko) draw.io/24.7.5 Chrome/126.0.6478.183 Electron/31.3.0 Safari/537.36" version="24.7.5" pages="2">
  <diagram name="第 1 页" id="w67NpEmbVc-sFmpH_44y">
    <mxGraphModel dx="1468" dy="942" grid="1" gridSize="10" guides="1" tooltips="1" connect="1" arrows="1" fold="1" page="1" pageScale="1" pageWidth="827" pageHeight="1169" math="0" shadow="0">
      <root>
        <mxCell id="0" />
        <mxCell id="1" parent="0" />
        <mxCell id="mzH3UlupHhf15si_sx7e-11" style="edgeStyle=orthogonalEdgeStyle;rounded=0;orthogonalLoop=1;jettySize=auto;html=1;endArrow=blockThin;endFill=1;fontSize=16;" edge="1" parent="1" source="mzH3UlupHhf15si_sx7e-1" target="mzH3UlupHhf15si_sx7e-9">
          <mxGeometry relative="1" as="geometry" />
        </mxCell>
        <mxCell id="mzH3UlupHhf15si_sx7e-14" value="用户退出游戏" style="edgeLabel;html=1;align=center;verticalAlign=middle;resizable=0;points=[];fontSize=16;" vertex="1" connectable="0" parent="mzH3UlupHhf15si_sx7e-11">
          <mxGeometry x="-0.0429" relative="1" as="geometry">
            <mxPoint y="1" as="offset" />
          </mxGeometry>
        </mxCell>
        <mxCell id="mzH3UlupHhf15si_sx7e-15" style="edgeStyle=orthogonalEdgeStyle;rounded=0;orthogonalLoop=1;jettySize=auto;html=1;entryX=0;entryY=0.5;entryDx=0;entryDy=0;endArrow=blockThin;endFill=1;fontSize=16;" edge="1" parent="1" source="mzH3UlupHhf15si_sx7e-1" target="mzH3UlupHhf15si_sx7e-3">
          <mxGeometry relative="1" as="geometry" />
        </mxCell>
        <mxCell id="mzH3UlupHhf15si_sx7e-16" value="用户继续游戏" style="edgeLabel;html=1;align=center;verticalAlign=middle;resizable=0;points=[];fontFamily=Helvetica;fontSize=16;fontColor=default;labelBackgroundColor=default;" vertex="1" connectable="0" parent="mzH3UlupHhf15si_sx7e-15">
          <mxGeometry x="-0.1" y="-1" relative="1" as="geometry">
            <mxPoint y="1" as="offset" />
          </mxGeometry>
        </mxCell>
        <mxCell id="mzH3UlupHhf15si_sx7e-1" value="&lt;b style=&quot;font-size: 16px;&quot;&gt;&lt;font style=&quot;font-size: 16px;&quot; face=&quot;Comic Sans MS&quot;&gt;&amp;nbsp;Terminal&lt;/font&gt;&lt;/b&gt;" style="rounded=1;whiteSpace=wrap;html=1;verticalAlign=top;fontSize=16;" vertex="1" parent="1">
          <mxGeometry x="40" y="140" width="230" height="150" as="geometry" />
        </mxCell>
        <mxCell id="mzH3UlupHhf15si_sx7e-2" value="- 选择难度&lt;div style=&quot;font-size: 16px;&quot;&gt;- 简单&lt;/div&gt;&lt;div style=&quot;font-size: 16px;&quot;&gt;- 中等&lt;/div&gt;&lt;div style=&quot;font-size: 16px;&quot;&gt;- 困难&lt;/div&gt;" style="text;html=1;align=left;verticalAlign=middle;whiteSpace=wrap;rounded=0;fontFamily=Comic Sans MS;fontSize=16;" vertex="1" parent="1">
          <mxGeometry x="70" y="200" width="170" height="60" as="geometry" />
        </mxCell>
        <mxCell id="mzH3UlupHhf15si_sx7e-17" style="shape=connector;rounded=0;orthogonalLoop=1;jettySize=auto;html=1;entryX=1;entryY=0.5;entryDx=0;entryDy=0;strokeColor=default;align=center;verticalAlign=middle;fontFamily=Helvetica;fontSize=16;fontColor=default;labelBackgroundColor=default;endArrow=blockThin;endFill=1;" edge="1" parent="1" source="mzH3UlupHhf15si_sx7e-3" target="mzH3UlupHhf15si_sx7e-9">
          <mxGeometry relative="1" as="geometry" />
        </mxCell>
        <mxCell id="mzH3UlupHhf15si_sx7e-18" value="中途退出" style="edgeLabel;html=1;align=center;verticalAlign=middle;resizable=0;points=[];fontFamily=Helvetica;fontSize=16;fontColor=default;labelBackgroundColor=default;" vertex="1" connectable="0" parent="mzH3UlupHhf15si_sx7e-17">
          <mxGeometry x="0.132" y="1" relative="1" as="geometry">
            <mxPoint x="9" y="-6" as="offset" />
          </mxGeometry>
        </mxCell>
        <mxCell id="mzH3UlupHhf15si_sx7e-26" style="edgeStyle=orthogonalEdgeStyle;shape=connector;rounded=0;orthogonalLoop=1;jettySize=auto;html=1;entryX=0;entryY=0.5;entryDx=0;entryDy=0;strokeColor=default;align=center;verticalAlign=middle;fontFamily=Helvetica;fontSize=16;fontColor=default;labelBackgroundColor=default;endArrow=blockThin;endFill=1;" edge="1" parent="1" source="mzH3UlupHhf15si_sx7e-3" target="mzH3UlupHhf15si_sx7e-19">
          <mxGeometry relative="1" as="geometry" />
        </mxCell>
        <mxCell id="mzH3UlupHhf15si_sx7e-27" value="次数耗尽&lt;div style=&quot;font-size: 16px;&quot;&gt;猜中数字&lt;/div&gt;" style="edgeLabel;html=1;align=center;verticalAlign=middle;resizable=0;points=[];fontFamily=Helvetica;fontSize=16;fontColor=default;labelBackgroundColor=default;" vertex="1" connectable="0" parent="mzH3UlupHhf15si_sx7e-26">
          <mxGeometry x="-0.0417" y="2" relative="1" as="geometry">
            <mxPoint x="1" as="offset" />
          </mxGeometry>
        </mxCell>
        <mxCell id="mzH3UlupHhf15si_sx7e-3" value="&lt;b style=&quot;font-size: 16px;&quot;&gt;&lt;font style=&quot;font-size: 16px;&quot; face=&quot;Comic Sans MS&quot;&gt;&amp;nbsp;Terminal&lt;/font&gt;&lt;/b&gt;" style="rounded=1;whiteSpace=wrap;html=1;verticalAlign=top;fontSize=16;" vertex="1" parent="1">
          <mxGeometry x="390" y="140" width="230" height="150" as="geometry" />
        </mxCell>
        <mxCell id="mzH3UlupHhf15si_sx7e-4" value="请输入数字&lt;div style=&quot;font-size: 16px;&quot;&gt;&amp;gt; &amp;lt;user-input&amp;gt;&lt;/div&gt;" style="text;html=1;align=left;verticalAlign=middle;whiteSpace=wrap;rounded=0;fontFamily=Comic Sans MS;fontSize=16;" vertex="1" parent="1">
          <mxGeometry x="420" y="200" width="170" height="60" as="geometry" />
        </mxCell>
        <mxCell id="mzH3UlupHhf15si_sx7e-12" style="edgeStyle=orthogonalEdgeStyle;rounded=0;orthogonalLoop=1;jettySize=auto;html=1;endArrow=blockThin;endFill=1;fontSize=16;" edge="1" parent="1" source="mzH3UlupHhf15si_sx7e-7" target="mzH3UlupHhf15si_sx7e-1">
          <mxGeometry relative="1" as="geometry" />
        </mxCell>
        <mxCell id="mzH3UlupHhf15si_sx7e-13" value="用户进入游戏" style="edgeLabel;html=1;align=center;verticalAlign=middle;resizable=0;points=[];fontSize=16;" vertex="1" connectable="0" parent="mzH3UlupHhf15si_sx7e-12">
          <mxGeometry x="-0.1571" y="1" relative="1" as="geometry">
            <mxPoint as="offset" />
          </mxGeometry>
        </mxCell>
        <mxCell id="mzH3UlupHhf15si_sx7e-7" value="" style="ellipse;html=1;shape=startState;fillColor=#000000;strokeColor=#ff0000;fontSize=16;" vertex="1" parent="1">
          <mxGeometry x="140" y="40" width="30" height="30" as="geometry" />
        </mxCell>
        <mxCell id="mzH3UlupHhf15si_sx7e-9" value="" style="ellipse;html=1;shape=endState;fillColor=#000000;strokeColor=#ff0000;fontSize=16;" vertex="1" parent="1">
          <mxGeometry x="140" y="360" width="30" height="30" as="geometry" />
        </mxCell>
        <mxCell id="mzH3UlupHhf15si_sx7e-28" style="edgeStyle=orthogonalEdgeStyle;shape=connector;rounded=0;orthogonalLoop=1;jettySize=auto;html=1;entryX=0.75;entryY=0;entryDx=0;entryDy=0;strokeColor=default;align=center;verticalAlign=middle;fontFamily=Helvetica;fontSize=16;fontColor=default;labelBackgroundColor=default;endArrow=blockThin;endFill=1;" edge="1" parent="1" source="mzH3UlupHhf15si_sx7e-19" target="mzH3UlupHhf15si_sx7e-1">
          <mxGeometry relative="1" as="geometry">
            <Array as="points">
              <mxPoint x="815" y="10" />
              <mxPoint x="212" y="10" />
            </Array>
          </mxGeometry>
        </mxCell>
        <mxCell id="mzH3UlupHhf15si_sx7e-29" value="重开" style="edgeLabel;html=1;align=center;verticalAlign=middle;resizable=0;points=[];fontFamily=Helvetica;fontSize=16;fontColor=default;labelBackgroundColor=default;" vertex="1" connectable="0" parent="mzH3UlupHhf15si_sx7e-28">
          <mxGeometry x="0.0116" relative="1" as="geometry">
            <mxPoint x="12" as="offset" />
          </mxGeometry>
        </mxCell>
        <mxCell id="mzH3UlupHhf15si_sx7e-30" style="shape=connector;rounded=0;orthogonalLoop=1;jettySize=auto;html=1;entryX=1;entryY=0.5;entryDx=0;entryDy=0;strokeColor=default;align=center;verticalAlign=middle;fontFamily=Helvetica;fontSize=16;fontColor=default;labelBackgroundColor=default;endArrow=blockThin;endFill=1;edgeStyle=orthogonalEdgeStyle;" edge="1" parent="1" source="mzH3UlupHhf15si_sx7e-19" target="mzH3UlupHhf15si_sx7e-9">
          <mxGeometry relative="1" as="geometry">
            <Array as="points">
              <mxPoint x="815" y="375" />
            </Array>
          </mxGeometry>
        </mxCell>
        <mxCell id="mzH3UlupHhf15si_sx7e-31" value="结束游戏" style="edgeLabel;html=1;align=center;verticalAlign=middle;resizable=0;points=[];fontFamily=Helvetica;fontSize=16;fontColor=default;labelBackgroundColor=default;" vertex="1" connectable="0" parent="mzH3UlupHhf15si_sx7e-30">
          <mxGeometry x="0.0232" y="2" relative="1" as="geometry">
            <mxPoint as="offset" />
          </mxGeometry>
        </mxCell>
        <mxCell id="mzH3UlupHhf15si_sx7e-19" value="&lt;b style=&quot;font-size: 16px;&quot;&gt;&lt;font style=&quot;font-size: 16px;&quot; face=&quot;Comic Sans MS&quot;&gt;&amp;nbsp;Terminal&lt;/font&gt;&lt;/b&gt;" style="rounded=1;whiteSpace=wrap;html=1;verticalAlign=top;fontSize=16;" vertex="1" parent="1">
          <mxGeometry x="700" y="140" width="230" height="150" as="geometry" />
        </mxCell>
        <mxCell id="mzH3UlupHhf15si_sx7e-20" value="结果显示&lt;div style=&quot;font-size: 16px;&quot;&gt;&amp;gt; 退出or重开&lt;/div&gt;" style="text;html=1;align=left;verticalAlign=middle;whiteSpace=wrap;rounded=0;fontFamily=Comic Sans MS;fontSize=16;" vertex="1" parent="1">
          <mxGeometry x="730" y="200" width="170" height="60" as="geometry" />
        </mxCell>
        <mxCell id="mzH3UlupHhf15si_sx7e-24" style="edgeStyle=orthogonalEdgeStyle;shape=connector;rounded=0;orthogonalLoop=1;jettySize=auto;html=1;exitX=1;exitY=0;exitDx=0;exitDy=0;entryX=0;entryY=0;entryDx=0;entryDy=0;strokeColor=default;align=center;verticalAlign=middle;fontFamily=Helvetica;fontSize=16;fontColor=default;labelBackgroundColor=default;endArrow=blockThin;endFill=1;" edge="1" parent="1" source="mzH3UlupHhf15si_sx7e-3" target="mzH3UlupHhf15si_sx7e-3">
          <mxGeometry relative="1" as="geometry">
            <Array as="points">
              <mxPoint x="620" y="60" />
              <mxPoint x="390" y="60" />
            </Array>
          </mxGeometry>
        </mxCell>
        <mxCell id="mzH3UlupHhf15si_sx7e-25" value="次数并未耗尽/没有猜中数字" style="edgeLabel;html=1;align=center;verticalAlign=middle;resizable=0;points=[];fontFamily=Helvetica;fontSize=16;fontColor=default;labelBackgroundColor=default;" vertex="1" connectable="0" parent="mzH3UlupHhf15si_sx7e-24">
          <mxGeometry x="0.0114" y="-4" relative="1" as="geometry">
            <mxPoint x="1" as="offset" />
          </mxGeometry>
        </mxCell>
      </root>
    </mxGraphModel>
  </diagram>
  <diagram id="nYGp0o3QqqomPaT_RN0s" name="第 2 页">
    <mxGraphModel dx="615" dy="392" grid="1" gridSize="10" guides="1" tooltips="1" connect="1" arrows="1" fold="1" page="1" pageScale="1" pageWidth="827" pageHeight="1169" math="0" shadow="0">
      <root>
        <mxCell id="0" />
        <mxCell id="1" parent="0" />
        <mxCell id="T8q6CQp968OfHfsijLU_-14" style="edgeStyle=orthogonalEdgeStyle;shape=connector;rounded=0;orthogonalLoop=1;jettySize=auto;html=1;entryX=0;entryY=0.5;entryDx=0;entryDy=0;strokeColor=default;align=center;verticalAlign=middle;fontFamily=Helvetica;fontSize=11;fontColor=default;labelBackgroundColor=default;endArrow=blockThin;endFill=1;" parent="1" source="RkapHQR_9JU92b2mH6eC-7" target="T8q6CQp968OfHfsijLU_-1" edge="1">
          <mxGeometry relative="1" as="geometry" />
        </mxCell>
        <mxCell id="T8q6CQp968OfHfsijLU_-15" value="更新" style="edgeLabel;html=1;align=center;verticalAlign=middle;resizable=0;points=[];fontFamily=Helvetica;fontSize=11;fontColor=default;labelBackgroundColor=none;" parent="T8q6CQp968OfHfsijLU_-14" vertex="1" connectable="0">
          <mxGeometry x="-0.12" y="1" relative="1" as="geometry">
            <mxPoint x="1" y="-9" as="offset" />
          </mxGeometry>
        </mxCell>
        <mxCell id="T8q6CQp968OfHfsijLU_-16" style="edgeStyle=orthogonalEdgeStyle;shape=connector;rounded=0;orthogonalLoop=1;jettySize=auto;html=1;strokeColor=default;align=center;verticalAlign=middle;fontFamily=Helvetica;fontSize=11;fontColor=default;labelBackgroundColor=default;endArrow=blockThin;endFill=1;" parent="1" source="RkapHQR_9JU92b2mH6eC-7" target="T8q6CQp968OfHfsijLU_-2" edge="1">
          <mxGeometry relative="1" as="geometry" />
        </mxCell>
        <mxCell id="T8q6CQp968OfHfsijLU_-17" value="渲染" style="edgeLabel;html=1;align=center;verticalAlign=middle;resizable=0;points=[];fontFamily=Helvetica;fontSize=11;fontColor=default;labelBackgroundColor=default;" parent="T8q6CQp968OfHfsijLU_-16" vertex="1" connectable="0">
          <mxGeometry x="-0.06" relative="1" as="geometry">
            <mxPoint x="17" y="1" as="offset" />
          </mxGeometry>
        </mxCell>
        <mxCell id="RkapHQR_9JU92b2mH6eC-7" value="Model: struct" style="rounded=0;whiteSpace=wrap;html=1;fontFamily=Helvetica;fontSize=11;labelBackgroundColor=none;verticalAlign=middle;" parent="1" vertex="1">
          <mxGeometry x="220" y="160" width="120" height="30" as="geometry" />
        </mxCell>
        <mxCell id="T8q6CQp968OfHfsijLU_-18" style="edgeStyle=orthogonalEdgeStyle;shape=connector;rounded=0;orthogonalLoop=1;jettySize=auto;html=1;entryX=0.5;entryY=0;entryDx=0;entryDy=0;strokeColor=default;align=center;verticalAlign=middle;fontFamily=Helvetica;fontSize=11;fontColor=default;labelBackgroundColor=default;endArrow=blockThin;endFill=1;" parent="1" source="T8q6CQp968OfHfsijLU_-1" target="T8q6CQp968OfHfsijLU_-3" edge="1">
          <mxGeometry relative="1" as="geometry" />
        </mxCell>
        <mxCell id="T8q6CQp968OfHfsijLU_-1" value="Updated Model: struct" style="rounded=0;whiteSpace=wrap;html=1;fontFamily=Helvetica;fontSize=11;labelBackgroundColor=none;verticalAlign=middle;" parent="1" vertex="1">
          <mxGeometry x="382.55" y="160" width="120" height="30" as="geometry" />
        </mxCell>
        <mxCell id="T8q6CQp968OfHfsijLU_-2" value="View: string" style="rounded=0;whiteSpace=wrap;html=1;fontFamily=Helvetica;fontSize=11;labelBackgroundColor=none;verticalAlign=middle;" parent="1" vertex="1">
          <mxGeometry x="220" y="230" width="120" height="30" as="geometry" />
        </mxCell>
        <mxCell id="T8q6CQp968OfHfsijLU_-3" value="Updated View: string" style="rounded=0;whiteSpace=wrap;html=1;fontFamily=Helvetica;fontSize=11;labelBackgroundColor=none;verticalAlign=middle;" parent="1" vertex="1">
          <mxGeometry x="382.55" y="230" width="120" height="30" as="geometry" />
        </mxCell>
        <mxCell id="T8q6CQp968OfHfsijLU_-19" value="渲染" style="edgeLabel;html=1;align=center;verticalAlign=middle;resizable=0;points=[];fontFamily=Helvetica;fontSize=11;fontColor=default;labelBackgroundColor=default;" parent="1" vertex="1" connectable="0">
          <mxGeometry x="459.55" y="209.99999999999997" as="geometry" />
        </mxCell>
        <mxCell id="T8q6CQp968OfHfsijLU_-21" style="edgeStyle=orthogonalEdgeStyle;shape=connector;rounded=0;orthogonalLoop=1;jettySize=auto;html=1;entryX=0.5;entryY=0;entryDx=0;entryDy=0;strokeColor=default;align=center;verticalAlign=middle;fontFamily=Helvetica;fontSize=11;fontColor=default;labelBackgroundColor=default;endArrow=blockThin;endFill=1;" parent="1" source="T8q6CQp968OfHfsijLU_-20" target="RkapHQR_9JU92b2mH6eC-7" edge="1">
          <mxGeometry relative="1" as="geometry" />
        </mxCell>
        <mxCell id="T8q6CQp968OfHfsijLU_-23" value="触发事件" style="edgeLabel;html=1;align=center;verticalAlign=middle;resizable=0;points=[];fontFamily=Helvetica;fontSize=11;fontColor=default;labelBackgroundColor=default;" parent="T8q6CQp968OfHfsijLU_-21" vertex="1" connectable="0">
          <mxGeometry x="-0.199" y="2" relative="1" as="geometry">
            <mxPoint x="40" y="12" as="offset" />
          </mxGeometry>
        </mxCell>
        <mxCell id="T8q6CQp968OfHfsijLU_-20" value="" style="shape=umlActor;verticalLabelPosition=bottom;verticalAlign=top;html=1;outlineConnect=0;fontFamily=Helvetica;fontSize=11;fontColor=default;labelBackgroundColor=default;" parent="1" vertex="1">
          <mxGeometry x="150" y="150" width="30" height="60" as="geometry" />
        </mxCell>
      </root>
    </mxGraphModel>
  </diagram>
</mxfile>
